{"title":"Ticking.Clock.2011.DvDRip.H264.Feel-Free","uid":6067851,"size":1438669315,"categoryP":"video","categoryS":"movies","magnet":"?xt=urn:btih:8286dd644466e17d9c535fb312cbf16c125ac88c&amp;dn=Ticking.Clock.2011.DvDRip.H264.Feel-Free&amp;tr=udp%3A%2F%2Ftracker.openbittorrent.com%3A80&amp;tr=udp%3A%2F%2Fopen.demonii.com%3A1337&amp;tr=udp%3A%2F%2Ftracker.coppersurfer.tk%3A6969&amp;tr=udp%3A%2F%2Fexodus.desync.com%3A6969","seeders":0,"leechers":0,"uploader":"neon","files":11,"time":1293473610,"description":"\nGenre: Action | Thriller\nLanguage:English\nIMDb:http://www.imdb.com/title/tt1519664/\nSource:NTSC.DVDR\nSubtitles:Romana\n\n\nFormat : MPEG-4\nFormat profile : Base Media\nCodec ID : isom\nFile size : 1.34 GiB\nDuration : 1h 41mn\nOverall bit rate : 1 893 Kbps\nMovie name : Ticking.Clock.2011.DvDRip.H264.Feel-Free\n\n\nVideo\nFormat settings, CABAC : Yes\nFormat settings, ReFrames : 4 frames\nFormat settings, GOP : M=4, N=32\nCodec ID : avc1\nCodec ID/Info : Advanced Video Coding\nDuration : 1h 41mn\nBit rate mode : Variable\nBit rate : 1 500 Kbps\nWidth : 720 pixels\nHeight : 384 pixels\nDisplay aspect ratio : 1.875\nFrame rate mode : Constant\nFrame rate : 23.976 fps\nColor space : YUV\nChroma subsampling : 4:2:0\nBit depth : 8 bits\nScan type : Progressive\nBits/(Pixel*Frame) : 0.226\nStream size : 1.06 GiB (79%)\n\nAudio\nID : 2\nFormat : AAC\nFormat/Info : Advanced Audio Codec\nFormat version : Version 4\nFormat profile : LC\nCodec ID : 40\nDuration : 1h 41mn\nBit rate mode : Variable\nBit rate : 384 Kbps\nChannel(s) : 6 channels\nChannel positions : Front: L C R, Side: L R, LFE\nSampling rate : 48.0 KHz\nStream size : 278 MiB (20%)\n\nPlot:\nA reporter stumbles upon the journal of a murderer replete with plans to butcher specific people, and investigates on his own, finding that every trail leads to a 9-year-old orphan living in a group home\n\n","torrent":{"xt":"urn:btih:8286dd644466e17d9c535fb312cbf16c125ac88c","amp;dn":"Ticking.Clock.2011.DvDRip.H264.Feel-Free","amp;tr":["udp%3A%2F%2Ftracker.openbittorrent.com%3A80","udp%3A%2F%2Fopen.demonii.com%3A1337","udp%3A%2F%2Ftracker.coppersurfer.tk%3A6969","udp%3A%2F%2Fexodus.desync.com%3A6969"],"infoHash":"8286dd644466e17d9c535fb312cbf16c125ac88c","infoHashBuffer":{"type":"Buffer","data":[130,134,221,100,68,102,225,125,156,83,95,179,18,203,241,108,18,90,200,140]},"announce":[],"urlList":[]}}